<?xml version="1.0" standalone="no"?>
<!DOCTYPE svg PUBLIC "-//W3C//DTD SVG 20010904//EN"
 "http://www.w3.org/TR/2001/REC-SVG-20010904/DTD/svg10.dtd">
<svg version="1.0" xmlns="http://www.w3.org/2000/svg"
 width="700.000000pt" height="700.000000pt" viewBox="0 0 700.000000 700.000000"
 preserveAspectRatio="xMidYMid meet">
<metadata>
Created by potrace 1.14, written by Peter Selinger 2001-2017
</metadata>
<g transform="translate(0.000000,700.000000) scale(0.100000,-0.100000)"
fill="#000000" stroke="none">
<path d="M3434 6701 c-43 -11 -66 -24 -259 -143 -350 -217 -576 -338 -815
-438 -69 -29 -141 -61 -160 -70 -102 -52 -162 -160 -155 -280 4 -64 29 -125
68 -169 29 -32 196 -155 261 -192 68 -40 207 -106 281 -134 65 -25 66 -25 95
-25 19 0 20 -7 20 -145 l0 -145 -52 0 c-196 -2 -223 -13 -376 -164 -233 -228
-399 -343 -542 -375 -83 -18 -214 -36 -340 -46 -94 -8 -166 -40 -219 -101
-102 -116 -95 -292 14 -398 35 -35 231 -150 348 -205 92 -44 211 -84 370 -126
173 -45 158 -43 344 -44 l162 -1 0 -144 0 -144 -42 -7 c-68 -12 -121 -42 -199
-115 -157 -146 -325 -273 -447 -338 -102 -55 -229 -90 -391 -106 -30 -3 -75
-8 -100 -11 -25 -3 -81 -7 -124 -10 -100 -7 -163 -34 -219 -94 -95 -101 -107
-246 -30 -362 36 -54 69 -77 231 -158 261 -131 388 -171 777 -246 17 -3 47 -9
68 -12 36 -6 37 -6 37 -52 1 -25 2 -302 3 -616 l2 -570 28 -57 c32 -64 80
-111 146 -142 46 -21 46 -21 1281 -21 l1235 0 53 24 c64 29 124 95 151 165 18
48 19 83 19 621 1 314 1 586 1 605 l1 35 103 19 c56 9 118 22 137 26 19 5 78
19 130 31 122 27 236 63 325 101 113 49 324 156 360 183 101 78 137 229 82
349 -48 104 -139 162 -268 171 -177 12 -361 36 -454 60 -147 39 -370 181 -565
361 -110 101 -127 115 -165 134 -35 17 -73 27 -112 29 -10 1 -13 37 -13 146
l0 145 163 0 c147 0 175 3 287 30 162 40 326 93 420 137 126 60 316 172 355
210 110 106 115 282 12 399 -53 60 -124 92 -220 99 -75 6 -207 22 -242 29 -11
2 -40 7 -65 11 -153 25 -359 164 -585 394 -120 122 -164 144 -299 148 -56 1
-104 3 -108 3 -5 0 -8 65 -8 145 0 138 1 145 20 145 29 0 30 0 96 25 162 61
322 150 464 260 78 60 98 85 125 150 44 109 18 234 -66 314 -42 41 -56 48
-229 121 -112 48 -340 160 -460 227 -94 53 -389 229 -468 281 -111 72 -192 93
-278 73z m211 -1590 c0 -77 -3 -142 -7 -146 -5 -6 -116 -8 -249 -6 l-35 1 0
145 0 145 146 0 146 0 -1 -139z m293 -1756 l1 -145 -437 2 -437 3 -1 143 -2
142 438 0 437 0 1 -145z m438 -2035 c0 -234 -1 -430 -3 -435 -2 -7 -296 -10
-876 -10 l-872 0 -1 430 c0 237 1 433 3 438 3 4 397 6 876 5 l872 -3 1 -425z"/>
</g>
</svg>
